<?xml version="1.0" encoding="UTF-8" ?>
<!DOCTYPE svg PUBLIC "-//W3C//DTD SVG 1.1//EN" "http://www.w3.org/Graphics/SVG/1.1/DTD/svg11.dtd">
<svg width="154pt" height="171pt" viewBox="0 0 154 171" version="1.1" xmlns="http://www.w3.org/2000/svg">
<g id="#fcfcfcff">
<path fill="#fcfcfc" opacity="1.00" d=" M 60.38 8.40 C 65.07 5.84 69.58 2.39 75.13 2.11 C 84.45 0.48 92.36 6.51 99.87 11.02 C 76.85 24.33 53.80 37.61 30.76 50.89 C 28.61 52.17 26.46 53.47 24.16 54.47 C 24.09 83.87 24.12 113.27 24.17 142.67 C 18.35 138.97 11.35 136.61 7.14 130.86 C 4.04 126.94 2.11 122.03 1.87 117.03 C 1.80 100.03 1.95 83.03 1.82 66.03 C 2.06 60.97 1.50 55.86 2.42 50.85 C 4.06 44.61 7.81 38.62 13.58 35.48 C 29.20 26.48 44.75 17.37 60.38 8.40 Z" />
<path fill="#fcfcfc" opacity="1.00" d=" M 45.26 67.15 C 70.76 52.55 96.19 37.82 121.62 23.12 C 128.91 28.08 136.89 31.96 144.34 36.68 C 149.21 40.01 151.77 45.51 154.00 50.77 L 154.00 118.54 C 153.05 126.35 148.24 133.70 141.19 137.32 C 124.09 147.15 107.02 157.05 89.97 166.97 C 82.89 170.97 73.88 171.12 66.69 167.31 C 59.52 163.34 52.57 158.96 45.32 155.12 C 45.34 142.50 45.45 129.87 45.21 117.25 C 73.97 100.66 102.84 84.23 131.45 67.39 C 132.53 63.28 131.61 58.77 131.83 54.51 C 128.34 52.97 125.31 50.53 121.78 49.08 C 120.02 49.23 118.53 50.27 117.02 51.08 C 93.36 64.98 69.49 78.51 45.78 92.33 C 44.72 84.00 45.76 75.53 45.26 67.15 M 94.99 113.97 C 85.72 119.09 76.83 124.94 67.32 129.59 C 67.07 133.89 67.14 138.20 67.30 142.50 C 70.98 144.22 74.38 146.47 78.01 148.29 C 96.09 138.30 113.74 127.52 131.82 117.53 C 131.97 109.26 131.84 101.00 131.89 92.73 C 119.47 99.60 107.31 106.92 94.99 113.97 Z" />
</g>
</svg>
