<?xml version="1.0" encoding="UTF-8" ?>
<!DOCTYPE svg PUBLIC "-//W3C//DTD SVG 1.1//EN" "http://www.w3.org/Graphics/SVG/1.1/DTD/svg11.dtd">
<svg width="284pt" height="280pt" viewBox="0 0 284 280" version="1.1" xmlns="http://www.w3.org/2000/svg">
<g id="#ffffffff">
<path fill="#ffffff" opacity="1.00" d=" M 22.04 0.00 L 192.86 0.00 C 193.09 6.93 193.02 13.87 192.94 20.80 C 141.29 20.77 89.65 20.81 38.00 20.78 C 32.65 20.81 27.29 20.61 21.96 21.08 C 21.39 26.37 21.63 31.69 21.60 37.00 C 21.64 110.79 21.57 184.59 21.64 258.38 C 43.10 258.41 64.57 258.42 86.04 258.37 C 86.22 227.61 86.33 196.86 86.36 166.10 C 122.00 166.05 157.65 166.09 193.30 166.08 C 193.32 173.00 193.32 179.91 193.32 186.83 C 164.65 186.79 135.98 186.79 107.31 186.83 C 107.37 217.67 107.29 248.51 107.35 279.35 C 71.57 279.24 35.78 279.32 0.00 279.30 L 0.00 21.17 C 7.22 20.90 14.48 21.44 21.68 20.68 C 22.31 13.80 21.89 6.89 22.04 0.00 Z" />
<path fill="#ffffff" opacity="1.00" d=" M 263.17 21.20 C 270.11 20.96 277.05 20.96 284.00 21.05 L 284.00 278.91 C 253.65 279.11 223.30 278.95 192.95 279.00 C 193.00 272.33 192.92 265.67 192.93 259.01 C 216.31 258.95 239.70 259.01 263.09 258.98 C 263.20 179.72 263.04 100.46 263.17 21.20 Z" />
<path fill="#ffffff" opacity="1.00" d=" M 86.11 85.34 C 121.86 85.34 157.62 85.41 193.37 85.30 C 193.41 92.34 193.35 99.39 193.44 106.43 C 157.65 106.35 121.86 106.43 86.06 106.40 C 86.07 99.38 86.04 92.36 86.11 85.34 Z" />
</g>
</svg>
